<?xml version="1.0" encoding="iso-8859-1"?>
<!-- Uploaded to: SVG Repo, www.svgrepo.com, Generator: SVG Repo Mixer Tools -->
<svg version="1.1" id="Layer_1" xmlns="http://www.w3.org/2000/svg" xmlns:xlink="http://www.w3.org/1999/xlink" 
	 viewBox="0 0 512 512" xml:space="preserve">
<path style="fill:#999999;" d="M421.227,190.725v-46.916h15.598V95.342c-33.25-33.25-51.893-51.893-85.143-85.143H75.175v94.853
	h20.697v85.673H75.175v311.076h124.729v-15.299h112.191v15.299h124.729V190.725H421.227z"/>
<rect x="132.59" y="194.805" style="fill:#4D4D4D;" width="252.94" height="252.94"/>
<path d="M436.825,512H312.096c-5.633,0-10.199-4.567-10.199-10.199v-5.1h-91.793v5.1c0,5.632-4.566,10.199-10.199,10.199H75.175
	c-5.633,0-10.199-4.567-10.199-10.199V190.725c0-5.632,4.566-10.199,10.199-10.199h10.498v-65.275H75.175
	c-5.633,0-10.199-4.567-10.199-10.199V10.199C64.976,4.567,69.542,0,75.175,0h276.507c2.705,0,5.299,1.075,7.212,2.987
	l85.143,85.142c1.912,1.913,2.987,4.507,2.987,7.212v48.468c0,5.632-4.566,10.199-10.199,10.199h-5.398v26.518h5.398
	c5.633,0,10.199,4.567,10.199,10.199v311.076C447.024,507.433,442.458,512,436.825,512z M322.295,491.602h104.331V200.924h-5.398
	c-5.633,0-10.199-4.567-10.199-10.199v-46.916c0-5.632,4.566-10.199,10.199-10.199h5.398V99.567l-79.168-79.168H85.374v74.454
	h10.498c5.633,0,10.199,4.567,10.199,10.199v85.673c0,5.632-4.566,10.199-10.199,10.199H85.374v290.677h104.331v-5.1
	c0-5.632,4.566-10.199,10.199-10.199h112.191c5.633,0,10.199,4.567,10.199,10.199V491.602z"/>
<path d="M385.53,457.944H132.59c-5.633,0-10.199-4.567-10.199-10.199v-252.94c0-5.632,4.566-10.199,10.199-10.199h252.94
	c5.633,0,10.199,4.567,10.199,10.199v252.94C395.729,453.377,391.163,457.944,385.53,457.944z M142.789,437.546h232.542V205.004
	H142.789V437.546z"/>
<path d="M327.394,55.076h-10.199c-5.633,0-10.199-4.567-10.199-10.199s4.566-10.199,10.199-10.199h10.199
	c5.633,0,10.199,4.567,10.199,10.199S333.027,55.076,327.394,55.076z"/>
<path d="M279.458,55.076H110.151c-5.633,0-10.199-4.567-10.199-10.199s4.566-10.199,10.199-10.199h169.307
	c5.633,0,10.199,4.567,10.199,10.199S285.091,55.076,279.458,55.076z"/>
</svg>